<svg version="1.1" id="Layer_1" xmlns="http://www.w3.org/2000/svg" xmlns:xlink="http://www.w3.org/1999/xlink" x="0px" y="0px"
	 width="100%" viewBox="0 0 359 405" enable-background="new 0 0 359 405" xml:space="preserve">
<path fill="#FDFDFD" opacity="1.000000" stroke="none" 
	d="
M30.000004,406.000000 
	C20.336840,406.000000 10.673677,406.000000 1.007887,406.000000 
	C1.005258,271.052460 1.005258,136.104919 1.005258,1.078692 
	C120.570763,1.078692 240.141602,1.078692 359.856201,1.078692 
	C359.856201,135.999878 359.856201,270.999908 359.856201,406.000000 
	C354.603394,406.000000 349.272156,406.000000 343.401855,405.623291 
	C340.977936,404.497559 339.145630,403.325653 337.197723,403.083344 
	C332.444611,402.492218 327.641571,402.259827 322.851715,402.021698 
	C319.445892,401.852356 316.028870,401.908752 312.717316,401.412750 
	C312.817780,389.955963 312.817780,378.950775 312.817780,367.067322 
	C307.797211,374.115662 301.731323,376.472168 294.130493,376.173492 
	C285.201355,375.822601 276.247833,376.091309 266.759064,376.091309 
	C266.759064,384.071716 266.759064,391.529694 266.362640,399.052368 
	C262.690643,399.398987 259.398132,400.045959 256.142639,399.894867 
	C246.079941,399.427917 236.035095,398.171631 225.976562,398.093750 
	C194.399124,397.849213 162.818588,397.997864 131.239273,398.020538 
	C129.592377,398.021698 127.947426,398.348389 126.298569,398.383972 
	C115.945114,398.607330 105.590813,398.791046 95.162735,398.525208 
	C95.088692,390.827728 95.088692,383.592896 95.088692,376.095001 
	C84.602913,376.095001 74.777664,376.640076 65.060974,375.850006 
	C60.635849,375.490265 56.370682,372.606964 52.155468,370.609711 
	C51.091904,370.105743 50.499275,368.607880 49.200249,366.936249 
	C49.200249,379.371857 49.200249,390.493256 48.959194,401.947266 
	C43.907848,402.853943 39.079636,403.314423 34.297852,404.069061 
	C32.800941,404.305267 31.429098,405.334015 30.000004,406.000000 
M118.075439,291.654663 
	C113.734032,281.599335 108.878395,271.729095 105.176102,261.443726 
	C100.085045,247.300201 92.588715,235.323074 80.115570,226.458893 
	C73.425972,221.704834 67.529358,215.834915 60.845257,210.099915 
	C48.096870,234.619354 44.751789,260.382843 44.273155,287.226379 
	C69.741081,290.856201 94.913506,294.443878 120.720894,298.072021 
	C121.144333,298.048248 121.567764,298.024506 122.502251,298.361206 
	C123.315491,298.496948 124.128731,298.632690 125.847893,299.056396 
	C161.919922,299.075073 197.991943,299.096588 234.063965,299.097473 
	C235.043182,299.097504 236.022385,298.875305 237.792725,298.798645 
	C238.528793,298.532532 239.264862,298.266418 240.636810,298.019348 
	C241.060577,298.024231 241.484360,298.029144 242.770294,297.970154 
	C267.727142,294.384125 292.683960,290.798096 317.765381,287.194153 
	C317.141571,260.132507 313.918182,234.341461 301.099152,210.107864 
	C291.370605,218.473770 281.893372,226.078415 273.109467,234.413651 
	C268.896820,238.411087 265.127350,243.382355 262.663971,248.621109 
	C255.328232,264.221741 248.738861,280.173340 241.177902,295.926666 
	C240.950745,295.912933 240.723572,295.899200 240.620026,295.052124 
	C245.061157,272.213074 249.373123,249.347321 254.086090,226.564514 
	C254.773941,223.239334 256.745544,219.652176 259.196167,217.308014 
	C271.586243,205.456360 284.406982,194.055756 296.860565,182.268646 
	C298.512970,180.704697 299.783325,177.835312 299.778931,175.573334 
	C299.755554,163.579742 299.348053,151.584229 298.920166,139.594849 
	C298.468750,126.945412 298.531494,114.225937 297.138763,101.673622 
	C294.920624,81.681541 291.312378,61.845978 288.971771,41.864594 
	C286.170013,17.946095 271.370514,10.837573 253.612045,10.889969 
	C213.624359,11.007952 173.634827,10.273106 133.645447,10.195567 
	C121.833557,10.172665 109.970482,10.693054 98.220329,11.863034 
	C86.145828,13.065311 76.143883,22.859369 74.304337,34.724731 
	C70.966637,56.253429 66.958839,77.755241 65.177643,99.428284 
	C63.064983,125.134445 62.950272,151.007874 62.190582,176.815323 
	C62.138939,178.569595 63.547852,180.794067 64.936890,182.096817 
	C77.566788,193.942352 90.414307,205.556335 103.006142,217.441513 
	C105.069801,219.389359 107.073021,222.151840 107.618446,224.839340 
	C112.145081,247.143936 116.322441,269.519409 119.515236,292.042572 
	C119.153366,292.108002 118.791496,292.173431 118.075439,291.654663 
M219.499924,371.185669 
	C243.989426,371.184814 268.478912,371.190155 292.968414,371.180450 
	C305.009338,371.175659 308.903046,367.961853 310.917206,355.886597 
	C312.694580,345.230865 314.569458,334.568634 315.709564,323.835815 
	C316.810059,313.476074 317.026337,303.022369 317.681396,291.742676 
	C226.288315,309.027954 135.679855,308.915344 45.193584,291.926208 
	C44.849091,293.020935 44.566959,293.485992 44.578159,293.943817 
	C45.112217,315.776733 46.874454,337.483582 51.717999,358.834869 
	C53.851002,368.237579 57.758011,371.169891 67.564850,371.172424 
	C117.876534,371.185394 168.188217,371.182831 219.499924,371.185669 
M340.640106,123.373528 
	C338.784363,122.055511 337.019653,119.789474 335.055450,119.600876 
	C329.609589,119.077965 324.080078,119.373932 318.584656,119.436539 
	C314.713989,119.480629 312.980774,121.409180 313.013611,125.410652 
	C313.129730,139.566833 313.021698,153.724716 313.078278,167.881622 
	C313.099396,173.165100 315.684631,175.739014 321.098480,175.892242 
	C325.758392,176.024109 330.425537,175.982285 335.088104,175.918350 
	C341.046387,175.836670 343.136505,173.576447 342.854309,167.643372 
	C342.166107,153.174240 341.464630,138.705750 340.640106,123.373528 
M48.940056,153.498672 
	C48.939350,144.177277 48.829815,134.854050 48.986641,125.535294 
	C49.058495,121.265472 47.168613,119.398117 43.060791,119.406982 
	C37.734337,119.418472 32.407848,119.415482 27.081373,119.416061 
	C23.219812,119.416481 21.318584,121.337158 21.145256,125.203804 
	C20.489475,139.833221 19.753984,154.459061 19.096073,169.088409 
	C18.903427,173.372070 21.235714,175.690933 25.346676,175.845840 
	C30.831503,176.052505 36.337524,176.063644 41.820751,175.833054 
	C46.460281,175.637970 48.857018,172.816971 48.928246,167.980118 
	C48.994415,163.486847 48.940884,158.991821 48.940056,153.498672 
M308.342804,193.170563 
	C315.003296,189.378418 321.663788,185.586258 328.324280,181.794113 
	C321.262634,181.822540 314.380249,178.172531 307.746887,182.218613 
	C305.041443,183.868820 303.790924,192.083466 306.310181,194.079681 
	C306.507965,194.236420 307.197449,193.772644 308.342804,193.170563 
M52.921890,192.849991 
	C54.058296,193.314178 55.194698,193.778366 56.630268,194.364746 
	C56.736176,192.153000 56.654247,190.479141 56.925415,188.864609 
	C57.613018,184.770538 56.291237,181.899277 51.969749,181.507660 
	C45.980286,180.964905 39.951523,180.855835 33.939590,180.561081 
	C33.892303,180.993942 33.845020,181.426804 33.797737,181.859665 
	C39.953648,185.383041 46.109558,188.906403 52.921890,192.849991 
z"/>
<path fill="#F1F1F1" opacity="1.000000" stroke="none" 
	d="
M95.236786,398.987885 
	C105.590813,398.791046 115.945114,398.607330 126.298569,398.383972 
	C127.947426,398.348389 129.592377,398.021698 131.239273,398.020538 
	C162.818588,397.997864 194.399124,397.849213 225.976562,398.093750 
	C236.035095,398.171631 246.079941,399.427917 256.142639,399.894867 
	C259.398132,400.045959 262.690643,399.398987 266.477325,399.387085 
	C267.470764,400.721924 267.953064,401.786713 268.043823,402.998535 
	C264.247162,403.098663 260.842133,403.012939 257.437012,403.011078 
	C231.786957,402.996887 206.136887,402.997375 180.486832,402.996948 
	C159.167297,402.996613 137.846863,402.914551 116.529587,403.134705 
	C114.343430,403.157288 112.176079,405.001221 110.000000,406.000000 
	C83.645775,406.000000 57.291542,406.000000 30.468662,406.000000 
	C31.429098,405.334015 32.800941,404.305267 34.297852,404.069061 
	C39.079636,403.314423 43.907848,402.853943 49.268894,402.148590 
	C52.164093,402.959961 54.485565,404.642792 56.856987,404.716431 
	C66.806496,405.025299 76.772453,404.752747 86.729263,404.901764 
	C91.150368,404.967896 94.072922,403.367401 95.236786,398.987885 
z"/>
<path fill="#E7E7E7" opacity="1.000000" stroke="none" 
	d="
M110.468658,406.000000 
	C112.176079,405.001221 114.343430,403.157288 116.529587,403.134705 
	C137.846863,402.914551 159.167297,402.996613 180.486832,402.996948 
	C206.136887,402.997375 231.786957,402.996887 257.437012,403.011078 
	C260.842133,403.012939 264.247162,403.098663 268.382690,403.129456 
	C271.293915,403.687775 273.465271,404.714600 275.657043,404.760162 
	C286.435181,404.984100 297.218719,404.947632 308.000397,405.252319 
	C308.000427,405.501526 308.000000,406.000000 308.000000,406.000000 
	C242.312439,406.000000 176.624878,406.000000 110.468658,406.000000 
z"/>
<path fill="#FAFAFA" opacity="1.000000" stroke="none" 
	d="
M308.468658,406.000000 
	C308.000000,406.000000 308.000427,405.501526 308.274780,405.095947 
	C309.905060,403.748352 311.260956,402.806366 312.616852,401.864380 
	C316.028870,401.908752 319.445892,401.852356 322.851715,402.021698 
	C327.641571,402.259827 332.444611,402.492218 337.197723,403.083344 
	C339.145630,403.325653 340.977936,404.497559 342.931396,405.623291 
	C331.645782,406.000000 320.291534,406.000000 308.468658,406.000000 
z"/>
<path fill="#030303" opacity="1.000000" stroke="none" 
	d="
M124.941971,298.768433 
	C124.128731,298.632690 123.315491,298.496948 122.253052,297.822754 
	C121.537704,295.480682 121.071548,293.677063 120.605400,291.873474 
	C116.322441,269.519409 112.145081,247.143936 107.618446,224.839340 
	C107.073021,222.151840 105.069801,219.389359 103.006142,217.441513 
	C90.414307,205.556335 77.566788,193.942352 64.936890,182.096817 
	C63.547852,180.794067 62.138939,178.569595 62.190582,176.815323 
	C62.950272,151.007874 63.064983,125.134445 65.177643,99.428284 
	C66.958839,77.755241 70.966637,56.253429 74.304337,34.724731 
	C76.143883,22.859369 86.145828,13.065311 98.220329,11.863034 
	C109.970482,10.693054 121.833557,10.172665 133.645447,10.195567 
	C173.634827,10.273106 213.624359,11.007952 253.612045,10.889969 
	C271.370514,10.837573 286.170013,17.946095 288.971771,41.864594 
	C291.312378,61.845978 294.920624,81.681541 297.138763,101.673622 
	C298.531494,114.225937 298.468750,126.945412 298.920166,139.594849 
	C299.348053,151.584229 299.755554,163.579742 299.778931,175.573334 
	C299.783325,177.835312 298.512970,180.704697 296.860565,182.268646 
	C284.406982,194.055756 271.586243,205.456360 259.196167,217.308014 
	C256.745544,219.652176 254.773941,223.239334 254.086090,226.564514 
	C249.373123,249.347321 245.061157,272.213074 240.382462,295.686951 
	C240.096924,296.881287 240.048935,297.440826 240.000946,298.000336 
	C239.264862,298.266418 238.528793,298.532532 237.441711,298.346588 
	C237.065216,297.606720 237.039764,297.318939 237.139709,296.645294 
	C237.814636,292.226074 238.364151,288.192688 238.931671,284.027161 
	C200.079361,284.027161 161.679031,284.027161 122.952400,284.027161 
	C123.664009,288.536133 124.331932,292.768219 124.959366,297.293884 
	C124.926575,297.981110 124.934273,298.374786 124.941971,298.768433 
M259.489594,169.967102 
	C268.521423,170.587357 277.553253,171.207611 286.836731,171.845154 
	C286.836731,154.555664 287.098541,137.743988 286.737946,120.945663 
	C286.523773,110.969955 279.325928,104.875694 268.890808,104.872711 
	C210.422638,104.856003 151.954483,104.856186 93.486313,104.873314 
	C81.879646,104.876717 75.217247,111.493599 75.162697,123.071999 
	C75.106186,135.065201 75.147095,147.058868 75.145714,159.052338 
	C75.145218,163.314545 75.145638,167.576752 75.145638,171.811646 
	C136.657288,167.320557 197.572708,167.468384 259.489594,169.967102 
M199.500000,256.974243 
	C213.946869,256.974243 228.393738,256.974243 242.898514,256.974243 
	C243.492737,252.304581 244.032227,248.064911 244.599197,243.609406 
	C202.098724,243.609406 159.887146,243.609406 117.397011,243.609406 
	C117.971466,248.113144 118.512482,252.354721 119.101707,256.974243 
	C145.623016,256.974243 172.061508,256.974243 199.500000,256.974243 
M204.499969,277.113312 
	C216.284073,277.113312 228.068176,277.113312 239.880600,277.113312 
	C240.576767,272.530518 241.196808,268.448883 241.863846,264.057861 
	C201.182434,264.057861 160.803482,264.057861 120.106018,264.057861 
	C120.823433,268.568787 121.488701,272.751770 122.182358,277.113312 
	C149.580368,277.113312 176.540161,277.113312 204.499969,277.113312 
M246.435944,231.271652 
	C245.825974,230.246002 245.338821,228.435699 244.586731,228.317978 
	C238.190536,227.316772 231.751312,225.998169 225.315308,225.944916 
	C195.849686,225.701035 166.379288,225.669159 136.914474,225.957840 
	C129.716125,226.028351 122.532433,227.597214 115.096138,228.507278 
	C115.658180,231.762817 116.094566,234.290497 116.519196,236.750092 
	C159.748932,236.750092 202.634018,236.750092 245.625793,236.750092 
	C245.848923,235.023254 246.038406,233.556808 246.435944,231.271652 
z"/>
<path fill="#010101" opacity="1.000000" stroke="none" 
	d="
M218.999908,371.185669 
	C168.188217,371.182831 117.876534,371.185394 67.564850,371.172424 
	C57.758011,371.169891 53.851002,368.237579 51.717999,358.834869 
	C46.874454,337.483582 45.112217,315.776733 44.578159,293.943817 
	C44.566959,293.485992 44.849091,293.020935 45.193584,291.926208 
	C135.679855,308.915344 226.288315,309.027954 317.681396,291.742676 
	C317.026337,303.022369 316.810059,313.476074 315.709564,323.835815 
	C314.569458,334.568634 312.694580,345.230865 310.917206,355.886597 
	C308.903046,367.961853 305.009338,371.175659 292.968414,371.180450 
	C268.478912,371.190155 243.989426,371.184814 218.999908,371.185669 
z"/>
<path fill="#060606" opacity="1.000000" stroke="none" 
	d="
M241.857910,295.987823 
	C248.738861,280.173340 255.328232,264.221741 262.663971,248.621109 
	C265.127350,243.382355 268.896820,238.411087 273.109467,234.413651 
	C281.893372,226.078415 291.370605,218.473770 301.099152,210.107864 
	C313.918182,234.341461 317.141571,260.132507 317.765381,287.194153 
	C292.683960,290.798096 267.727142,294.384125 242.253754,297.665894 
	C241.777435,296.903717 241.817673,296.445770 241.857910,295.987823 
M308.892700,266.509583 
	C308.890106,263.843750 308.983124,261.173645 308.864594,258.513000 
	C308.635620,253.371994 305.753448,250.934052 300.664062,251.904800 
	C297.097778,252.585037 293.484528,253.457733 290.155365,254.866348 
	C275.540466,261.050079 262.918671,269.061615 262.873779,287.813080 
	C263.554443,287.813080 264.525726,287.948761 265.447388,287.792297 
	C275.932526,286.012299 286.453827,284.406189 296.878174,282.317749 
	C308.930511,279.903198 308.892639,279.714233 308.892700,266.509583 
z"/>
<path fill="#060606" opacity="1.000000" stroke="none" 
	d="
M120.085938,298.031586 
	C94.913506,294.443878 69.741081,290.856201 44.273155,287.226379 
	C44.751789,260.382843 48.096870,234.619354 60.845257,210.099915 
	C67.529358,215.834915 73.425972,221.704834 80.115570,226.458893 
	C92.588715,235.323074 100.085045,247.300201 105.176102,261.443726 
	C108.878395,271.729095 113.734032,281.599335 118.310776,292.327087 
	C119.059395,294.676880 119.572662,296.354248 120.085938,298.031586 
M96.456688,287.784454 
	C97.490639,287.220978 99.483856,286.329773 99.419533,286.141479 
	C97.299355,279.935242 96.555244,272.253357 92.359497,267.975342 
	C84.143753,259.598572 73.612404,253.847794 61.583042,251.890213 
	C56.139244,251.004333 53.270603,253.312561 53.143738,258.757324 
	C53.027676,263.738770 53.297760,268.733490 53.065105,273.706787 
	C52.832783,278.672943 55.119083,280.931671 59.862289,281.677399 
	C71.809265,283.555603 83.722031,285.651428 96.456688,287.784454 
z"/>
<path fill="#050505" opacity="1.000000" stroke="none" 
	d="
M340.704285,123.805267 
	C341.464630,138.705750 342.166107,153.174240 342.854309,167.643372 
	C343.136505,173.576447 341.046387,175.836670 335.088104,175.918350 
	C330.425537,175.982285 325.758392,176.024109 321.098480,175.892242 
	C315.684631,175.739014 313.099396,173.165100 313.078278,167.881622 
	C313.021698,153.724716 313.129730,139.566833 313.013611,125.410652 
	C312.980774,121.409180 314.713989,119.480629 318.584656,119.436539 
	C324.080078,119.373932 329.609589,119.077965 335.055450,119.600876 
	C337.019653,119.789474 338.784363,122.055511 340.704285,123.805267 
z"/>
<path fill="#050505" opacity="1.000000" stroke="none" 
	d="
M48.940056,153.998108 
	C48.940884,158.991821 48.994415,163.486847 48.928246,167.980118 
	C48.857018,172.816971 46.460281,175.637970 41.820751,175.833054 
	C36.337524,176.063644 30.831503,176.052505 25.346676,175.845840 
	C21.235714,175.690933 18.903427,173.372070 19.096073,169.088409 
	C19.753984,154.459061 20.489475,139.833221 21.145256,125.203804 
	C21.318584,121.337158 23.219812,119.416481 27.081373,119.416061 
	C32.407848,119.415482 37.734337,119.418472 43.060791,119.406982 
	C47.168613,119.398117 49.058495,121.265472 48.986641,125.535294 
	C48.829815,134.854050 48.939350,144.177277 48.940056,153.998108 
z"/>
<path fill="#040404" opacity="1.000000" stroke="none" 
	d="
M312.717316,401.412781 
	C311.260956,402.806366 309.905060,403.748352 308.274750,404.846710 
	C297.218719,404.947632 286.435181,404.984100 275.657043,404.760162 
	C273.465271,404.714600 271.293915,403.687775 268.774261,402.982391 
	C267.953064,401.786713 267.470764,400.721924 266.873749,399.322418 
	C266.759064,391.529694 266.759064,384.071716 266.759064,376.091309 
	C276.247833,376.091309 285.201355,375.822601 294.130493,376.173492 
	C301.731323,376.472168 307.797211,374.115662 312.817780,367.067322 
	C312.817780,378.950775 312.817780,389.955963 312.717316,401.412781 
z"/>
<path fill="#050505" opacity="1.000000" stroke="none" 
	d="
M95.162735,398.525208 
	C94.072922,403.367401 91.150368,404.967896 86.729263,404.901764 
	C76.772453,404.752747 66.806496,405.025299 56.856987,404.716431 
	C54.485565,404.642792 52.164093,402.959961 49.509949,401.815979 
	C49.200249,390.493256 49.200249,379.371857 49.200249,366.936249 
	C50.499275,368.607880 51.091904,370.105743 52.155468,370.609711 
	C56.370682,372.606964 60.635849,375.490265 65.060974,375.850006 
	C74.777664,376.640076 84.602913,376.095001 95.088692,376.095001 
	C95.088692,383.592896 95.088692,390.827728 95.162735,398.525208 
z"/>
<path fill="#353535" opacity="1.000000" stroke="none" 
	d="
M237.014297,297.031128 
	C237.039764,297.318939 237.065216,297.606720 237.046143,298.325623 
	C236.022385,298.875305 235.043182,299.097504 234.063965,299.097473 
	C197.991943,299.096588 161.919922,299.075073 125.394928,298.912415 
	C124.934273,298.374786 124.926575,297.981110 125.427971,297.302124 
	C162.962814,297.021576 199.988556,297.026337 237.014297,297.031128 
z"/>
<path fill="#0E0E0E" opacity="1.000000" stroke="none" 
	d="
M308.000610,193.383911 
	C307.197449,193.772644 306.507965,194.236420 306.310181,194.079681 
	C303.790924,192.083466 305.041443,183.868820 307.746887,182.218613 
	C314.380249,178.172531 321.262634,181.822540 328.324280,181.794113 
	C321.663788,185.586258 315.003296,189.378418 308.000610,193.383911 
z"/>
<path fill="#0E0E0E" opacity="1.000000" stroke="none" 
	d="
M52.593681,192.639893 
	C46.109558,188.906403 39.953648,185.383041 33.797737,181.859665 
	C33.845020,181.426804 33.892303,180.993942 33.939590,180.561081 
	C39.951523,180.855835 45.980286,180.964905 51.969749,181.507660 
	C56.291237,181.899277 57.613018,184.770538 56.925415,188.864609 
	C56.654247,190.479141 56.736176,192.153000 56.630268,194.364746 
	C55.194698,193.778366 54.058296,193.314178 52.593681,192.639893 
z"/>
<path fill="#EFEFEF" opacity="1.000000" stroke="none" 
	d="
M120.403412,298.051819 
	C119.572662,296.354248 119.059395,294.676880 118.487869,292.619202 
	C118.791496,292.173431 119.153366,292.108002 120.060318,291.958008 
	C121.071548,293.677063 121.537704,295.480682 121.997528,297.642517 
	C121.567764,298.024506 121.144333,298.048248 120.403412,298.051819 
z"/>
<path fill="#EFEFEF" opacity="1.000000" stroke="none" 
	d="
M241.517914,295.957245 
	C241.817673,296.445770 241.777435,296.903717 241.822662,297.697845 
	C241.484360,298.029144 241.060577,298.024231 240.318878,298.009827 
	C240.048935,297.440826 240.096924,296.881287 240.320648,296.103638 
	C240.723572,295.899200 240.950745,295.912933 241.517914,295.957245 
z"/>
<path fill="#FEFEFE" opacity="1.000000" stroke="none" 
	d="
M259.000854,169.956573 
	C197.572708,167.468384 136.657288,167.320557 75.145638,171.811646 
	C75.145638,167.576752 75.145218,163.314545 75.145714,159.052338 
	C75.147095,147.058868 75.106186,135.065201 75.162697,123.071999 
	C75.217247,111.493599 81.879646,104.876717 93.486313,104.873314 
	C151.954483,104.856186 210.422638,104.856003 268.890808,104.872711 
	C279.325928,104.875694 286.523773,110.969955 286.737946,120.945663 
	C287.098541,137.743988 286.836731,154.555664 286.836731,171.845154 
	C277.553253,171.207611 268.521423,170.587357 259.000854,169.956573 
z"/>
<path fill="#F4F4F4" opacity="1.000000" stroke="none" 
	d="
M199.000000,256.974243 
	C172.061508,256.974243 145.623016,256.974243 119.101707,256.974243 
	C118.512482,252.354721 117.971466,248.113144 117.397011,243.609406 
	C159.887146,243.609406 202.098724,243.609406 244.599197,243.609406 
	C244.032227,248.064911 243.492737,252.304581 242.898514,256.974243 
	C228.393738,256.974243 213.946869,256.974243 199.000000,256.974243 
z"/>
<path fill="#FEFEFE" opacity="1.000000" stroke="none" 
	d="
M203.999954,277.113312 
	C176.540161,277.113312 149.580368,277.113312 122.182358,277.113312 
	C121.488701,272.751770 120.823433,268.568787 120.106018,264.057861 
	C160.803482,264.057861 201.182434,264.057861 241.863846,264.057861 
	C241.196808,268.448883 240.576767,272.530518 239.880600,277.113312 
	C228.068176,277.113312 216.284073,277.113312 203.999954,277.113312 
z"/>
<path fill="#FDFDFD" opacity="1.000000" stroke="none" 
	d="
M237.139709,296.645294 
	C199.988556,297.026337 162.962814,297.021576 125.468460,297.008575 
	C124.331932,292.768219 123.664009,288.536133 122.952400,284.027161 
	C161.679031,284.027161 200.079361,284.027161 238.931671,284.027161 
	C238.364151,288.192688 237.814636,292.226074 237.139709,296.645294 
z"/>
<path fill="#FBFBFB" opacity="1.000000" stroke="none" 
	d="
M246.331909,231.681015 
	C246.038406,233.556808 245.848923,235.023254 245.625793,236.750092 
	C202.634018,236.750092 159.748932,236.750092 116.519196,236.750092 
	C116.094566,234.290497 115.658180,231.762817 115.096138,228.507278 
	C122.532433,227.597214 129.716125,226.028351 136.914474,225.957840 
	C166.379288,225.669159 195.849686,225.701035 225.315308,225.944916 
	C231.751312,225.998169 238.190536,227.316772 244.586731,228.317978 
	C245.338821,228.435699 245.825974,230.246002 246.331909,231.681015 
z"/>
<path fill="#FAFAFA" opacity="1.000000" stroke="none" 
	d="
M308.892700,266.993958 
	C308.892639,279.714233 308.930511,279.903198 296.878174,282.317749 
	C286.453827,284.406189 275.932526,286.012299 265.447388,287.792297 
	C264.525726,287.948761 263.554443,287.813080 262.873779,287.813080 
	C262.918671,269.061615 275.540466,261.050079 290.155365,254.866348 
	C293.484528,253.457733 297.097778,252.585037 300.664062,251.904800 
	C305.753448,250.934052 308.635620,253.371994 308.864594,258.513000 
	C308.983124,261.173645 308.890106,263.843750 308.892700,266.993958 
z"/>
<path fill="#FAFAFA" opacity="1.000000" stroke="none" 
	d="
M96.052597,287.722229 
	C83.722031,285.651428 71.809265,283.555603 59.862289,281.677399 
	C55.119083,280.931671 52.832783,278.672943 53.065105,273.706787 
	C53.297760,268.733490 53.027676,263.738770 53.143738,258.757324 
	C53.270603,253.312561 56.139244,251.004333 61.583042,251.890213 
	C73.612404,253.847794 84.143753,259.598572 92.359497,267.975342 
	C96.555244,272.253357 97.299355,279.935242 99.419533,286.141479 
	C99.483856,286.329773 97.490639,287.220978 96.052597,287.722229 
z"/>
</svg>