<?xml version="1.0" standalone="no"?>
<!DOCTYPE svg PUBLIC "-//W3C//DTD SVG 20010904//EN"
 "http://www.w3.org/TR/2001/REC-SVG-20010904/DTD/svg10.dtd">
<svg version="1.0" xmlns="http://www.w3.org/2000/svg"
 width="613.000000pt" height="619.000000pt" viewBox="0 0 613.000000 619.000000"
 preserveAspectRatio="xMidYMid meet">

<g transform="translate(0.000000,619.000000) scale(0.100000,-0.100000)"
fill="#000000" stroke="none">
<path d="M2330 6040 c-107 -5 -280 -14 -385 -20 -267 -16 -273 -19 -328 -210
l-33 -114 -58 -12 c-73 -15 -104 -31 -121 -64 -8 -15 -42 -123 -76 -241 -64
-223 -72 -277 -54 -387 8 -53 8 -54 -16 -50 -16 2 -25 11 -27 25 -6 43 -19 45
-259 41 -125 -2 -236 -7 -245 -12 -9 -4 -29 -36 -44 -70 -24 -56 -31 -64 -63
-72 -31 -8 -40 -17 -65 -69 l-29 -60 -5 -267 -5 -268 71 0 c51 0 75 -4 86 -16
33 -32 66 -102 87 -184 12 -47 25 -88 28 -91 3 -4 18 -9 34 -13 l27 -6 0 474
c0 417 -2 476 -15 484 -18 10 -10 42 11 42 49 0 241 -34 252 -44 11 -11 1
-100 -58 -512 -39 -274 -73 -500 -75 -502 -2 -2 -14 3 -27 11 -18 12 -145 37
-188 37 -5 0 -12 17 -15 38 -19 110 -73 228 -112 243 -29 11 -288 3 -385 -11
-117 -18 -132 -38 -142 -198 -5 -83 -3 -95 14 -112 11 -11 32 -20 47 -20 16 0
105 -7 198 -15 94 -8 233 -19 310 -25 77 -7 146 -17 154 -23 11 -9 174 -210
213 -263 4 -6 3 -37 -1 -70 -5 -32 -12 -147 -15 -254 -8 -239 -21 -302 -70
-347 -20 -18 -47 -33 -60 -33 -48 0 -128 -34 -173 -74 -51 -45 -157 -184 -221
-290 -81 -135 -159 -373 -181 -556 -16 -132 -20 -239 -10 -270 8 -21 6 -34
-10 -61 -18 -32 -20 -57 -22 -429 -4 -467 -1 -490 68 -560 27 -28 56 -72 72
-111 27 -62 29 -65 82 -83 l55 -19 18 -66 c24 -92 56 -152 93 -177 29 -19 50
-21 262 -28 272 -8 282 -6 333 74 l33 52 345 -6 c774 -14 1765 -17 2425 -6
385 6 716 13 736 15 34 4 38 2 67 -44 53 -87 51 -86 325 -83 264 3 281 6 318
65 11 18 32 71 46 118 l27 87 52 16 c51 16 53 18 80 84 17 42 42 80 66 102 73
67 73 65 76 532 3 373 1 422 -14 453 -12 27 -17 69 -18 187 -4 234 -62 468
-165 663 -58 110 -190 294 -244 340 -42 36 -131 75 -172 75 -28 0 -80 42 -99
79 -22 43 -26 86 -36 331 -6 129 -13 247 -16 261 -5 21 11 47 96 155 56 71
106 134 111 139 6 6 131 12 312 15 258 5 307 8 334 23 49 26 76 72 81 136 5
66 -13 170 -31 188 -22 23 -146 41 -320 48 l-167 6 -29 -28 c-31 -31 -67 -119
-83 -203 -6 -30 -11 -56 -12 -57 -1 -1 -39 -7 -85 -13 -47 -6 -97 -18 -112
-25 -25 -14 -27 -13 -32 8 -3 12 -36 239 -74 505 -57 405 -66 484 -54 492 13
7 83 19 219 36 58 7 64 -1 37 -52 -13 -25 -15 -99 -15 -474 0 -245 4 -450 8
-457 5 -8 17 -10 37 -5 27 8 31 14 42 73 15 73 61 177 92 208 17 17 33 21 92
21 l71 0 -7 268 c-7 235 -10 273 -28 317 -23 57 -49 85 -82 85 -18 0 -28 12
-47 58 -40 91 -28 87 -296 87 l-235 0 -17 -30 c-32 -58 -74 -31 -49 31 24 63
13 141 -56 379 -76 267 -83 278 -180 296 -33 7 -63 15 -68 19 -4 3 -21 56 -38
116 -18 60 -40 121 -50 135 -36 51 -67 57 -355 75 -309 18 -1445 27 -1764 14z
m-32 -111 c55 -84 12 -80 771 -77 661 3 670 3 698 24 15 11 41 40 57 63 26 39
31 42 65 37 20 -3 131 -8 246 -12 116 -3 212 -8 214 -10 2 -2 -25 -72 -60
-155 l-63 -151 -66 6 c-414 38 -1610 41 -2119 5 -79 -5 -147 -6 -151 -2 -9 10
-131 296 -127 299 1 1 106 6 232 11 127 5 239 10 250 11 14 1 30 -14 53 -49z
m-522 -169 c25 -62 42 -116 37 -120 -4 -4 -69 -10 -143 -13 l-135 -6 56 16 57
16 28 134 c32 155 24 157 100 -27z m2664 29 c12 -64 25 -121 29 -126 3 -6 29
-18 56 -26 49 -16 48 -16 -85 -10 -74 3 -138 8 -142 12 -3 3 19 68 50 143 31
75 60 134 63 130 4 -4 16 -59 29 -123z m-420 -189 c278 -14 631 -37 634 -42 8
-9 136 -438 136 -456 0 -31 -9 -32 -84 -11 -145 40 -740 62 -1641 63 -927 0
-1503 -22 -1652 -64 -88 -24 -80 -24 -86 1 -5 20 118 444 134 463 12 14 353
34 1039 60 179 7 1315 -4 1520 -14z m-40 -590 c195 -5 438 -12 540 -16 234 -9
223 -1 270 -197 71 -303 134 -738 114 -794 -25 -72 -134 -81 -359 -27 -98 23
-193 38 -275 44 -271 19 -766 22 -1621 10 l-894 -12 -171 -39 c-175 -40 -251
-47 -317 -28 -57 15 -71 45 -63 132 22 240 75 549 131 767 36 140 28 136 277
145 635 24 1755 31 2368 15z m-2720 -179 c0 -3 -29 -177 -65 -388 -47 -274
-72 -395 -87 -424 -15 -29 -24 -73 -31 -148 -5 -58 -11 -108 -13 -110 -3 -3
-11 2 -18 10 -12 12 -3 90 60 529 41 283 76 520 79 527 3 10 75 14 75 4z
m3674 -13 c3 -13 10 -57 16 -98 6 -41 38 -259 70 -483 33 -225 60 -421 60
-437 0 -25 -24 -49 -33 -32 -2 4 -5 39 -6 77 -2 95 -10 134 -33 174 -14 25
-39 148 -84 413 -35 208 -64 384 -64 393 0 10 10 15 35 15 28 0 36 -4 39 -22z
m-4345 -733 c41 -35 98 -213 66 -209 -5 1 -119 8 -252 15 l-243 13 0 68 c0 59
3 72 23 92 21 21 36 25 143 31 65 3 124 8 129 10 6 2 31 4 57 4 36 1 53 -5 77
-24z m5221 9 c124 -9 140 -23 140 -122 l0 -69 -242 -13 c-134 -6 -247 -13
-253 -14 -13 -1 -8 44 11 113 10 35 28 67 50 89 l35 35 82 -7 c45 -3 125 -9
177 -12z m-1968 -153 c268 -4 490 -10 493 -13 4 -3 -7 -68 -24 -145 -17 -76
-39 -185 -50 -242 -11 -57 -23 -106 -26 -109 -2 -3 -295 0 -651 7 -355 6 -649
9 -652 7 -4 -2 -241 -7 -528 -11 l-520 -7 -14 84 c-7 45 -30 158 -50 251 -32
144 -34 167 -21 168 43 4 879 15 1196 16 198 1 579 -2 847 -6z m-2589 -72 c79
-22 225 -4 408 48 12 3 21 -15 42 -84 38 -127 47 -165 68 -287 25 -143 26
-136 -18 -136 -75 0 -155 -19 -188 -44 -18 -14 -41 -45 -50 -68 -15 -41 -13
-80 40 -818 30 -426 60 -833 65 -904 6 -71 9 -130 7 -133 -7 -6 -261 28 -270
37 -11 10 -64 220 -116 455 -89 400 -166 931 -157 1075 3 47 7 145 8 218 1 72
5 132 8 132 3 0 21 -16 40 -35 23 -24 43 -35 62 -35 86 0 168 105 155 199 -10
80 -30 107 -130 173 l-95 63 5 60 c2 33 6 79 9 103 l5 43 30 -25 c17 -14 49
-31 72 -37z m3720 -51 l5 -96 -92 -61 c-96 -63 -118 -91 -131 -163 -18 -96 64
-208 153 -208 19 0 39 11 62 35 19 19 37 35 40 35 4 0 10 -101 14 -224 6 -204
4 -241 -19 -422 -33 -263 -85 -563 -140 -809 -52 -233 -100 -414 -112 -425 -8
-8 -263 -44 -268 -38 -2 2 3 86 11 188 71 959 115 1601 111 1633 -6 47 -49
105 -92 123 -18 7 -68 17 -112 21 l-78 8 3 45 c5 66 39 230 75 353 28 98 33
108 51 104 12 -3 55 -15 96 -26 108 -31 267 -39 323 -17 25 9 53 26 63 37 9
11 21 16 25 12 3 -5 9 -52 12 -105z m-773 -473 c80 -3 169 -7 197 -9 61 -5
105 -32 129 -78 17 -33 20 39 -36 -833 -10 -165 -26 -410 -35 -545 -29 -463
-55 -875 -60 -955 -3 -44 -10 -142 -14 -218 -5 -76 -11 -140 -13 -142 -2 -2
-104 -7 -227 -11 -122 -4 -233 -7 -244 -8 -20 -1 -22 5 -25 64 l-3 65 148 3
c81 1 171 5 200 8 l52 6 5 62 c4 33 11 135 16 226 6 91 12 199 15 240 3 41 23
354 45 695 22 341 49 769 61 951 12 183 19 339 16 348 -11 29 -154 22 -267
-14 l-95 -30 -1035 0 -1035 0 -75 30 c-83 32 -208 42 -228 18 -10 -14 -10 -25
28 -603 11 -170 38 -591 60 -935 22 -344 42 -652 44 -685 3 -33 8 -115 12
-182 l7 -123 26 -1 c14 -1 42 -3 61 -4 19 -2 99 -4 178 -6 l142 -4 0 -64 0
-64 -252 7 c-139 4 -253 8 -254 9 -1 1 -7 88 -13 192 -6 105 -14 219 -16 255
-3 36 -12 175 -20 310 -8 135 -17 279 -20 320 -3 41 -19 289 -35 550 -17 261
-37 583 -46 715 -20 309 -19 328 1 363 41 68 40 68 650 85 177 5 1786 -1 1955
-8z m-2315 -199 l35 -15 0 -98 c1 -54 3 -118 5 -143 2 -25 6 -139 10 -255 3
-115 10 -320 15 -455 5 -135 12 -333 15 -440 3 -107 8 -205 11 -217 7 -34 -31
-63 -83 -63 -41 0 -43 1 -43 30 0 16 -25 397 -55 846 -30 450 -55 819 -55 821
0 10 116 1 145 -11z m2485 -1 c0 -13 -53 -815 -65 -985 -20 -279 -45 -657 -45
-677 0 -20 -5 -23 -42 -23 -82 1 -82 1 -74 232 6 194 11 350 21 578 2 58 9
267 15 465 6 198 13 369 15 380 6 27 47 43 118 44 44 1 57 -2 57 -14z m-270
-185 l0 -30 -107 0 c-875 -1 -1977 0 -1979 2 -3 4 -7 31 -5 46 1 9 217 12
1046 12 l1045 0 0 -30z m-3110 -231 c0 -60 153 -767 237 -1092 25 -98 43 -180
40 -183 -3 -3 -21 -2 -41 1 -41 8 -27 -28 -162 415 -47 157 -93 297 -100 312
-23 44 -73 75 -192 119 -97 37 -115 40 -127 28 -24 -25 -114 -216 -145 -306
-41 -125 -70 -261 -77 -370 -3 -51 -10 -93 -14 -93 -36 0 -36 180 1 365 27
135 82 303 133 405 41 83 43 85 80 88 67 6 225 -60 321 -133 26 -20 50 -34 53
-32 10 11 -39 87 -74 117 -21 17 -89 54 -152 81 -63 27 -116 51 -119 53 -10
10 48 94 96 138 57 53 119 88 159 88 15 0 35 5 43 10 24 16 40 11 40 -11z
m4222 1 c27 -5 61 -16 76 -24 49 -26 127 -102 155 -154 l27 -49 -125 -53
c-101 -43 -133 -61 -165 -97 -36 -39 -66 -90 -57 -99 2 -2 25 13 53 32 100 72
246 134 315 134 32 0 41 -5 58 -33 31 -51 99 -229 127 -333 65 -243 83 -494
35 -494 -4 0 -11 38 -14 84 -9 113 -41 267 -78 373 -35 103 -136 312 -153 319
-12 5 -185 -54 -235 -81 -39 -20 -76 -66 -95 -117 -8 -24 -58 -185 -111 -358
-53 -172 -97 -315 -98 -316 -1 -1 -20 -5 -43 -8 l-41 -7 68 273 c69 275 143
609 195 881 23 122 31 146 44 142 8 -4 36 -10 62 -15z m-1122 -35 l0 -35
-1040 0 -1040 0 0 35 0 35 1040 0 1040 0 0 -35z m0 -255 l0 -30 -1035 -2
-1035 -3 0 33 0 32 1035 0 1035 0 0 -30z m0 -257 l0 -33 -1035 0 -1035 0 0 33
0 32 1035 0 1035 0 0 -32z m-3206 -75 c8 -24 41 -126 72 -227 46 -152 53 -186
42 -196 -10 -10 -56 -9 -236 5 -123 10 -225 20 -229 23 -3 3 -2 22 1 41 l7 36
92 -8 c156 -12 218 -9 231 10 8 13 1 57 -32 190 -54 218 -53 214 -3 188 30
-15 43 -30 55 -62z m4446 67 c0 -9 -18 -87 -40 -175 -44 -176 -47 -202 -25
-220 15 -12 119 -10 261 6 l51 6 7 -37 c4 -20 5 -39 3 -42 -7 -7 -450 -41
-464 -35 -7 2 -13 10 -13 17 0 11 82 289 121 413 7 20 25 42 47 57 44 28 52
30 52 10z m-1260 -250 l0 -35 -1010 0 -1010 0 0 35 0 35 1010 0 1010 0 0 -35z
m-16 -247 c-1 -10 -2 -22 -3 -28 -1 -7 -342 -10 -1001 -10 l-1000 0 0 30 0 30
1003 -2 c947 -3 1002 -4 1001 -20z m-3242 -98 c289 -25 278 -23 278 -60 0 -37
19 -37 -285 -5 -320 34 -305 31 -305 60 0 31 4 32 312 5z m4808 -4 c0 -31 11
-28 -318 -62 -174 -18 -266 -24 -273 -17 -6 6 -6 19 0 36 8 21 17 27 43 28 18
0 119 9 223 18 105 10 220 19 258 20 65 1 67 0 67 -23z m-5221 -124 c18 -7
171 -27 340 -47 432 -49 388 -40 395 -78 5 -27 169 -673 182 -718 4 -13 -60
-6 -425 46 l-429 61 -5 -47 c-3 -26 -14 -64 -25 -85 l-19 -36 -30 36 c-17 21
-35 54 -41 74 -6 22 -14 202 -18 437 l-7 399 24 -15 c13 -9 39 -21 58 -27z
m5383 -402 c-8 -362 -9 -387 -29 -425 -11 -22 -29 -48 -40 -57 -18 -17 -20
-16 -37 13 -10 16 -20 54 -23 84 -5 49 -8 54 -27 50 -11 -3 -194 -30 -406 -60
-212 -30 -395 -57 -407 -60 -13 -3 -23 -2 -23 2 0 5 38 154 84 333 46 179 89
348 96 377 16 61 -24 50 320 89 336 38 416 50 457 72 l38 19 3 -26 c1 -14 -1
-199 -6 -411z m-1665 390 c19 -14 41 -20 79 -20 46 0 54 -3 54 -19 0 -18 -20
-19 -517 -26 -285 -4 -810 -5 -1168 -1 -357 3 -662 6 -677 6 -21 0 -28 5 -28
20 0 17 7 20 51 20 35 0 60 7 83 23 l33 22 1032 -2 c1017 -3 1033 -3 1058 -23z
m-2677 -111 c102 -11 186 -21 186 -22 3 -4 54 -740 52 -742 -2 -1 -61 3 -132
9 -114 10 -130 13 -136 31 -4 11 -44 175 -89 365 -45 190 -84 353 -87 363 -7
21 -18 21 206 -4z m3424 -6 c-3 -16 -43 -188 -88 -383 l-82 -355 -125 -11
c-68 -6 -126 -10 -129 -8 -6 3 43 731 50 738 5 5 302 43 352 45 25 1 27 -2 22
-26z m-619 -43 c-2 -8 -7 -56 -11 -107 l-6 -91 -92 -6 c-420 -26 -2215 -20
-2242 7 -2 2 -7 51 -10 108 l-7 104 1187 0 c1049 0 1185 -2 1181 -15z m-2171
-297 c3 -21 8 -73 12 -115 l6 -78 69 -1 c85 -2 89 -2 89 -11 0 -5 0 -20 0 -34
l0 -26 -162 7 c-90 4 -164 8 -165 9 -4 3 -18 278 -14 282 2 2 39 4 82 4 l77 0
6 -37z m2144 -75 c-3 -62 -7 -127 -7 -144 l-1 -32 -165 -7 c-91 -4 -168 -6
-170 -4 -2 2 -5 18 -7 34 -3 33 -7 32 96 34 l73 1 7 73 c4 39 9 91 12 115 l6
42 82 0 81 0 -7 -112z m-489 -113 c39 -12 51 -61 51 -208 0 -144 -9 -187 -43
-210 -33 -21 -177 -27 -687 -27 -468 0 -632 5 -662 21 -39 21 -48 61 -48 214
0 155 10 198 50 213 25 9 1310 7 1339 -3z m-2496 -575 c10 -9 -29 -90 -42 -90
-7 0 -51 89 -51 104 0 8 83 -5 93 -14z m3747 11 c0 -5 -9 -31 -21 -58 l-21
-48 -24 28 c-13 15 -24 39 -24 52 0 19 6 24 33 28 17 2 38 5 45 5 6 1 12 -2
12 -7z"/>
<path d="M2241 4960 c-216 -5 -398 -11 -404 -13 -15 -5 449 -499 481 -514 15
-6 61 -14 102 -18 41 -4 85 -12 96 -18 12 -7 83 -78 158 -159 l137 -148 247 0
247 0 105 116 c58 64 125 135 150 158 43 40 51 43 120 50 41 4 89 11 107 17
22 7 98 82 260 255 125 135 229 249 231 253 7 21 -1393 35 -2037 21z m1319
-94 c0 -2 -73 -62 -162 -133 -170 -136 -239 -203 -302 -291 -21 -28 -41 -52
-45 -52 -4 0 -24 24 -45 54 -53 77 -201 216 -344 321 -66 50 -121 93 -122 98
0 4 230 7 510 7 281 0 510 -2 510 -4z"/>
<path d="M1494 4933 c-61 -12 -92 -114 -143 -473 -47 -328 -47 -332 -19 -365
l25 -28 309 2 c170 1 347 4 394 6 47 2 201 4 343 5 147 1 257 5 257 10 0 5
-46 56 -102 114 l-103 104 -70 7 c-38 4 -81 13 -95 20 -14 8 -158 147 -320
309 l-295 296 -80 -1 c-44 -1 -90 -4 -101 -6z m76 -636 c138 -117 132 -111
124 -130 -5 -15 -23 -17 -128 -17 -125 0 -136 3 -152 33 -10 18 7 184 21 207
8 14 12 11 135 -93z"/>
<path d="M4130 4635 l-306 -306 -69 -10 c-39 -5 -82 -15 -96 -20 -24 -9 -206
-196 -198 -203 2 -2 213 -6 469 -10 256 -3 535 -9 621 -12 86 -4 168 -4 183 0
17 4 32 19 42 40 15 31 15 46 -6 202 -27 207 -54 370 -81 485 -28 120 -42 132
-162 137 l-92 3 -305 -306z m550 -344 l14 -103 -23 -19 c-19 -15 -41 -19 -115
-20 -50 0 -100 -2 -111 -4 -22 -4 -45 11 -45 30 0 17 241 226 255 221 6 -1 17
-49 25 -105z"/>
<path d="M487 1243 c-4 -3 -7 -93 -7 -200 0 -205 8 -251 48 -272 18 -10 382
-71 423 -71 11 0 24 10 30 23 8 19 0 49 -51 177 -33 85 -71 165 -83 178 -25
28 -307 172 -335 172 -10 0 -22 -3 -25 -7z m193 -121 c87 -43 121 -65 138 -91
24 -38 29 -89 9 -97 -18 -6 -268 44 -284 58 -28 23 -13 191 17 187 3 0 57 -26
120 -57z"/>
<path d="M5436 1180 c-90 -43 -151 -80 -171 -102 -30 -32 -145 -302 -145 -340
0 -40 22 -41 212 -13 227 33 254 40 272 68 11 16 16 76 21 225 7 211 4 233
-34 231 -9 0 -79 -31 -155 -69z m132 -12 c17 -17 16 -162 0 -176 -7 -5 -73
-22 -146 -37 -115 -24 -136 -26 -148 -14 -19 20 -2 78 33 111 27 25 217 126
239 127 5 1 15 -4 22 -11z"/>
</g>
</svg>
