<?xml version="1.0" standalone="no"?>
<!DOCTYPE svg PUBLIC "-//W3C//DTD SVG 20010904//EN"
 "http://www.w3.org/TR/2001/REC-SVG-20010904/DTD/svg10.dtd">
<svg version="1.0" xmlns="http://www.w3.org/2000/svg"
 width="569.000000pt" height="629.000000pt" viewBox="0 0 569.000000 629.000000"
 preserveAspectRatio="xMidYMid meet">

<g transform="translate(0.000000,629.000000) scale(0.100000,-0.100000)"
fill="#000000" stroke="none">
<path d="M2439 6106 c-2 -2 -118 -6 -257 -10 -140 -3 -284 -8 -320 -11 -37 -2
-112 -7 -167 -10 -79 -4 -111 -11 -153 -31 -64 -31 -116 -95 -131 -162 -8 -38
-31 -344 -31 -421 0 -15 -10 -20 -49 -25 -69 -9 -136 -57 -175 -126 l-31 -55
3 -809 c2 -444 0 -806 -5 -803 -4 3 -91 42 -193 87 -102 45 -189 86 -193 90
-4 4 -16 152 -27 329 -20 344 -24 364 -73 376 -29 8 -192 -22 -230 -42 -52
-26 -57 -56 -57 -347 l0 -264 -37 -7 c-172 -32 -270 -215 -194 -363 58 -112
199 -170 318 -132 45 15 116 62 136 91 15 20 15 20 93 -12 44 -18 89 -42 100
-53 12 -12 54 -70 95 -131 40 -60 121 -180 180 -265 99 -144 107 -160 114
-216 l7 -61 -49 -7 c-184 -27 -351 -88 -426 -156 -65 -59 -93 -117 -148 -305
-113 -383 -168 -829 -156 -1260 10 -351 37 -492 114 -599 23 -33 42 -76 54
-124 22 -88 53 -147 92 -176 27 -20 41 -21 232 -21 l204 0 35 34 34 33 199
-11 c752 -43 2178 -43 2966 0 l209 11 34 -33 35 -34 204 0 c191 0 205 1 232
21 38 28 70 88 91 171 10 40 35 96 59 135 81 128 100 229 110 593 13 501 -65
1035 -210 1430 -34 93 -118 172 -226 214 -92 35 -206 65 -290 76 l-54 7 7 64
c6 63 8 65 222 371 171 245 222 311 254 329 66 38 72 37 100 -7 90 -148 304
-161 425 -27 134 149 45 373 -165 414 l-30 7 0 269 c0 294 -3 314 -58 342 -37
19 -200 49 -229 41 -48 -12 -52 -32 -72 -375 -11 -177 -23 -326 -28 -330 -4
-4 -71 -36 -148 -70 -77 -35 -164 -73 -193 -87 l-53 -23 7 788 c6 634 5 795
-6 827 -32 98 -111 169 -203 181 -39 6 -47 10 -47 28 0 103 -24 400 -36 436
-20 63 -65 114 -127 144 -41 20 -73 26 -157 31 -58 3 -136 8 -175 10 -244 18
-1341 34 -1356 21z m-421 -389 c30 -166 56 -309 58 -317 3 -13 -25 -16 -224
-16 -125 -1 -261 -6 -302 -12 -60 -9 -78 -8 -88 2 -11 11 -11 53 3 247 17 245
23 281 56 324 44 54 105 66 384 73 l60 2 53 -303z m1910 293 c139 -8 157 -11
191 -33 57 -38 71 -79 82 -230 26 -368 25 -359 10 -374 -7 -8 -23 -12 -35 -9
-57 14 -343 27 -453 21 -107 -6 -123 -5 -123 8 0 9 25 152 55 318 30 166 55
304 55 306 0 5 49 3 218 -7z m-1318 -847 c0 -8 -5 -23 -10 -34 -9 -16 -22 -19
-91 -19 -76 0 -80 1 -89 26 -6 14 -10 29 -10 34 0 9 137 18 178 11 12 -2 22
-10 22 -18z m330 7 c0 -5 -4 -20 -10 -34 -9 -25 -13 -26 -88 -26 -47 0 -83 5
-90 12 -11 11 -17 50 -8 59 8 8 196 -2 196 -11z m327 6 c3 -3 1 -17 -4 -33
-10 -28 -10 -28 -94 -28 -83 0 -84 0 -93 28 -7 20 -7 30 1 35 12 8 182 6 190
-2z m-1637 -27 c0 -4 -4 -19 -10 -33 -9 -24 -14 -26 -70 -26 -56 0 -61 2 -70
26 -16 41 -13 43 53 46 69 3 97 0 97 -13z m2580 2 c0 -5 -4 -21 -10 -35 -9
-24 -14 -26 -70 -26 -56 0 -61 2 -70 26 -6 14 -10 30 -10 35 0 5 36 9 80 9 44
0 80 -4 80 -9z m-385 -149 c416 -8 409 -7 472 -71 60 -60 66 -86 74 -321 23
-708 23 -713 1 -740 -18 -23 -27 -25 -99 -25 -43 0 -463 3 -933 7 -470 3
-1109 3 -1420 -1 -599 -9 -595 -9 -618 36 -15 29 14 925 31 965 20 48 64 96
111 121 37 20 59 22 251 27 357 9 1730 10 2130 2z m-3221 -752 c4 -91 9 -185
11 -210 2 -25 7 -121 11 -213 l6 -169 -20 13 c-12 7 -28 32 -37 55 -15 38 -84
115 -113 125 -8 3 7 80 49 249 73 298 79 323 84 319 2 -2 6 -78 9 -169z m4547
-117 c44 -183 64 -279 57 -282 -29 -10 -99 -87 -113 -125 -9 -23 -25 -47 -36
-54 -18 -11 -19 -9 -19 40 0 29 7 184 15 343 8 160 15 308 15 329 0 22 3 36 6
33 4 -3 37 -131 75 -284z m-1413 -369 c299 -6 332 -9 327 -23 -22 -55 -78
-331 -100 -489 -7 -52 -16 -96 -18 -99 -3 -2 -43 0 -89 6 -703 94 -1383 92
-2080 -5 l-48 -7 0 31 c0 49 -48 316 -80 451 -17 68 -29 126 -27 128 2 2 213
7 468 12 478 9 1065 7 1647 -5z m-2215 -79 c49 -187 106 -517 94 -547 -3 -9
-20 -19 -38 -23 -47 -10 -112 -81 -128 -138 -13 -44 -11 -286 4 -482 2 -33 7
-121 10 -195 19 -481 45 -1098 50 -1168 l5 -82 -42 6 c-24 4 -46 9 -50 13 -14
13 -129 917 -178 1406 -51 500 -50 758 1 1080 30 186 34 192 144 197 116 6
107 11 128 -67z m2854 49 c32 -20 51 -95 74 -289 22 -192 26 -513 9 -710 -23
-263 -73 -726 -110 -1015 -47 -360 -80 -606 -85 -627 -4 -16 -17 -25 -46 -33
-23 -6 -43 -9 -46 -6 -4 4 11 421 32 866 2 58 7 161 10 230 3 69 8 172 10 230
26 545 26 544 10 596 -17 60 -80 124 -138 143 -36 12 -36 13 -31 59 15 120 47
297 80 432 l35 149 87 -6 c48 -3 97 -12 109 -19z m-3429 -149 l192 -80 0 -47
c0 -29 -4 -48 -11 -48 -6 0 -96 44 -200 97 l-189 97 0 34 c0 18 4 32 8 30 5
-1 95 -39 200 -83z m3997 68 c-2 -10 -4 -26 -4 -35 -1 -13 -56 -45 -191 -113
-104 -52 -192 -95 -195 -95 -3 0 -5 22 -5 48 l0 48 193 81 c105 45 195 82 199
82 3 1 5 -7 3 -16z m-4578 -33 c8 -1 -74 -180 -83 -180 -21 0 -74 50 -93 89
-17 32 -25 69 -22 95 1 6 131 4 198 -4z m5158 -27 c-4 -20 -13 -49 -20 -64
-16 -31 -80 -89 -98 -89 -10 0 -43 74 -75 167 -4 14 17 18 122 21 l78 3 -7
-38z m-801 -245 c-27 -47 -188 -277 -192 -274 -2 3 -1 49 3 104 l7 99 48 12
c27 7 68 25 92 41 51 33 51 34 42 18z m-3723 -44 c23 -14 63 -31 90 -37 46
-11 49 -14 49 -43 0 -17 3 -60 6 -95 6 -57 5 -62 -9 -49 -22 22 -188 250 -182
250 3 0 24 -12 46 -26z m2364 -188 c22 -3 103 -10 180 -16 236 -18 496 -50
525 -65 16 -8 39 -29 52 -47 27 -38 29 -87 17 -348 -4 -85 -10 -243 -14 -350
-37 -1027 -39 -1073 -63 -1112 -47 -75 -38 -73 -630 -144 -295 -35 -559 -64
-587 -64 -99 0 -1121 127 -1153 144 -30 16 -73 65 -85 97 -7 21 -12 135 -42
937 -31 815 -31 790 -2 832 12 19 36 42 52 51 41 24 282 52 810 93 68 5 890
-2 940 -8z m-2465 -1370 c148 -57 281 -111 295 -120 54 -35 74 -83 100 -244
14 -84 25 -165 25 -181 0 -40 -22 -55 -73 -48 -74 9 -641 129 -662 139 -64 33
-95 87 -95 163 0 52 1 55 25 55 16 0 38 -15 67 -46 23 -25 63 -56 89 -70 54
-27 167 -48 219 -40 28 5 41 1 64 -20 15 -14 27 -26 25 -28 -2 -1 -15 -10 -27
-18 -22 -15 -22 -17 -5 -21 31 -10 305 -58 308 -55 2 2 -4 45 -14 96 -16 92
-17 93 -35 73 -10 -11 -37 -28 -61 -36 -57 -22 -112 -8 -154 40 -27 31 -31 43
-31 92 0 54 2 58 44 99 37 35 42 44 28 49 -30 13 -216 75 -222 75 -4 0 6 -26
22 -57 30 -62 55 -170 45 -197 -14 -35 -132 -16 -196 32 -60 44 -89 153 -61
228 13 32 4 40 -52 49 -46 8 -53 18 -38 54 13 34 46 52 78 45 12 -2 144 -51
292 -108z m4242 84 c40 -41 34 -61 -25 -76 -27 -7 -51 -14 -53 -17 -3 -2 0
-16 6 -31 26 -70 0 -181 -54 -224 -42 -32 -108 -54 -157 -50 -38 3 -44 6 -48
28 -5 39 18 130 49 188 15 28 25 52 22 52 -4 0 -62 -18 -130 -41 l-124 -41 31
-19 c45 -27 71 -75 71 -131 0 -39 -6 -54 -31 -83 -56 -63 -139 -67 -208 -10
l-28 24 -16 -92 c-9 -50 -15 -93 -13 -95 4 -3 276 45 310 55 18 5 17 7 -7 20
-34 17 -34 24 2 51 22 16 38 20 59 16 48 -10 171 14 225 44 27 14 66 46 87 69
27 31 45 43 65 43 l27 0 -4 -65 c-4 -71 -23 -105 -75 -140 -21 -15 -128 -41
-359 -88 -181 -37 -338 -67 -349 -67 -52 0 -55 27 -21 231 26 160 39 195 91
236 31 24 579 241 613 243 8 0 27 -13 44 -30z m-4597 -709 c17 -13 45 -30 63
-38 25 -11 755 -112 809 -113 8 0 9 -9 2 -32 -16 -55 -12 -182 16 -451 15
-143 24 -262 20 -265 -6 -6 -436 22 -589 39 -180 19 -285 97 -335 246 -32 95
-51 274 -51 480 0 206 -7 192 65 134z m4645 -336 c-21 -249 -55 -352 -141
-429 -71 -63 -136 -85 -309 -101 -226 -21 -500 -39 -506 -32 -3 3 6 122 20
265 27 271 31 382 17 445 -5 21 -5 37 0 37 5 0 180 23 390 50 402 53 414 56
494 120 l40 32 3 -129 c2 -70 -2 -186 -8 -258z m-3040 89 c399 -51 618 -76
690 -76 95 0 395 36 1195 141 77 11 144 16 148 11 23 -21 22 -164 -5 -426 -14
-148 -27 -279 -27 -290 -1 -21 -7 -22 -163 -28 -90 -3 -229 -9 -310 -12 l-147
-7 6 53 c4 39 3 54 -8 61 -8 5 -75 9 -150 9 -155 0 -166 -5 -176 -79 l-6 -41
-352 0 -352 0 -6 42 c-10 71 -26 78 -188 78 -135 0 -140 -1 -148 -22 -4 -13
-4 -38 1 -56 5 -19 7 -36 4 -39 -5 -5 -608 16 -613 21 -1 1 -16 139 -33 307
-25 255 -28 315 -19 365 14 74 14 74 47 68 15 -2 290 -38 612 -80z"/>
<path d="M2610 4913 c-36 -2 -297 -4 -580 -5 -495 -3 -516 -4 -549 -23 -62
-37 -68 -59 -75 -307 -3 -123 -9 -316 -12 -430 l-7 -208 47 0 c32 0 56 7 76
21 25 19 53 23 212 34 345 25 703 37 1123 37 415 1 421 1 465 23 102 51 187
70 315 70 133 0 229 -22 333 -74 37 -19 81 -31 127 -36 76 -7 110 -23 120 -55
5 -16 15 -20 52 -20 l45 0 -6 58 c-3 31 -8 185 -11 342 -7 387 -12 460 -35
498 -35 58 -56 64 -218 68 -195 5 -1339 10 -1422 7z m1493 -145 c49 -18 58
-52 55 -210 l-3 -142 -38 97 c-56 141 -46 135 -372 227 l-140 39 235 -1 c129
0 247 -5 263 -10z m-2295 -33 c-151 -59 -147 -53 -223 -315 l-54 -185 0 223
c-1 234 6 277 46 301 11 6 79 10 168 10 l150 0 -87 -34z"/>
<path d="M2780 3060 c-82 -8 -156 -40 -172 -75 -10 -22 -8 -30 9 -53 33 -45
103 -65 223 -66 97 -1 109 1 165 29 50 25 61 35 63 59 9 73 -125 123 -288 106z"/>
<path d="M1704 2902 c-12 -2 -32 -14 -44 -27 -28 -30 -28 -37 0 -710 11 -259
22 -551 25 -650 10 -317 -2 -299 216 -327 116 -16 157 -18 176 -9 52 24 51 14
39 851 -12 785 -13 798 -50 829 -15 12 -322 49 -362 43z"/>
<path d="M3755 2886 c-117 -12 -147 -23 -166 -58 -18 -33 -37 -1577 -21 -1613
20 -43 51 -48 201 -30 168 20 197 31 210 82 5 21 17 234 26 473 9 239 22 580
30 758 14 336 12 372 -25 392 -23 12 -111 11 -255 -4z"/>
<path d="M2233 2826 c-28 -24 -28 -25 -28 -148 0 -67 3 -269 8 -448 4 -179 9
-458 12 -620 7 -373 11 -414 38 -446 20 -22 38 -26 212 -49 105 -14 196 -25
203 -25 8 0 27 14 44 31 l31 31 -7 796 c-8 846 -6 825 -54 851 -13 7 -376 51
-422 51 -5 0 -22 -11 -37 -24z"/>
<path d="M3295 2840 c-33 -5 -114 -14 -180 -21 -107 -11 -122 -15 -146 -38
l-26 -26 -7 -790 c-5 -535 -4 -799 3 -817 5 -15 21 -34 35 -43 24 -16 38 -15
222 9 234 30 240 33 248 130 3 33 8 207 11 386 3 179 7 377 10 440 3 63 7 251
11 417 l6 303 -30 30 c-33 33 -47 34 -157 20z"/>
<path d="M680 1672 c-43 -35 -15 -112 40 -112 30 0 63 34 63 65 0 31 -33 65
-63 65 -10 0 -28 -8 -40 -18z"/>
<path d="M1090 1567 c-52 -27 -62 -104 -19 -143 13 -12 36 -19 61 -19 75 0
114 84 66 139 -28 31 -74 41 -108 23z"/>
<path d="M4942 1683 c-31 -28 -35 -56 -11 -86 38 -49 109 -24 109 38 0 56 -57
83 -98 48z"/>
<path d="M4534 1580 c-30 -12 -54 -49 -54 -83 0 -35 49 -87 82 -87 90 1 126
125 48 165 -32 17 -45 18 -76 5z"/>
<path d="M652 884 c-42 -17 -45 -37 -28 -174 15 -132 31 -171 78 -193 60 -28
607 -104 635 -89 18 11 -28 30 -178 76 -48 14 -92 33 -100 42 -7 8 -21 65 -30
126 -25 153 -30 158 -210 196 -119 26 -140 28 -167 16z"/>
<path d="M4877 871 c-71 -16 -138 -34 -151 -40 -36 -20 -52 -59 -66 -161 -6
-52 -18 -105 -26 -117 -9 -15 -41 -30 -101 -48 -148 -46 -198 -66 -181 -76 28
-16 574 59 633 87 50 23 67 64 81 196 15 133 9 163 -31 178 -15 6 -27 10 -28
9 -1 0 -60 -13 -130 -28z"/>
<path d="M1675 622 c-33 -6 -38 -18 -36 -89 3 -99 15 -113 99 -113 37 0 74 5
82 10 23 15 27 161 5 184 -16 16 -88 20 -150 8z"/>
<path d="M3867 616 c-23 -24 -24 -157 -1 -180 22 -23 146 -22 165 0 16 20 26
161 11 176 -5 5 -43 12 -84 15 -61 5 -77 3 -91 -11z"/>
</g>
</svg>
