<?xml version="1.0" standalone="no"?>
<!DOCTYPE svg PUBLIC "-//W3C//DTD SVG 20010904//EN"
 "http://www.w3.org/TR/2001/REC-SVG-20010904/DTD/svg10.dtd">
<svg version="1.0" xmlns="http://www.w3.org/2000/svg"
 width="551.000000pt" height="627.000000pt" viewBox="0 0 551.000000 627.000000"
 preserveAspectRatio="xMidYMid meet">

<g transform="translate(0.000000,627.000000) scale(0.100000,-0.100000)"
fill="#000000" stroke="none">
<path d="M2225 6128 c-476 -7 -701 -19 -780 -42 -28 -9 -71 -29 -97 -45 -44
-28 -120 -113 -140 -157 -8 -18 -21 -22 -75 -27 -72 -5 -113 -28 -124 -68 -4
-13 -7 -231 -8 -484 0 -443 -1 -462 -22 -520 -23 -65 -33 -186 -43 -535 -23
-772 -26 -812 -53 -858 -38 -67 -29 -67 -229 10 l-102 39 24 24 c23 23 24 31
25 157 1 73 3 147 4 163 2 36 7 373 6 398 -1 9 -10 26 -21 37 -18 18 -33 20
-127 20 -117 -1 -135 -7 -153 -54 -6 -17 -10 -156 -10 -366 0 -337 0 -339 22
-364 20 -22 209 -134 435 -257 l63 -34 0 -51 c0 -47 2 -52 25 -58 l25 -6 -7
-143 -6 -142 -47 -50 c-94 -101 -142 -207 -164 -364 -8 -53 -23 -132 -35 -176
-26 -103 -48 -244 -56 -367 -7 -95 -6 -98 19 -121 28 -26 26 -67 -4 -67 -39 0
-43 -22 -38 -201 4 -149 3 -171 -11 -179 -14 -7 -16 -29 -13 -147 4 -249 13
-344 32 -363 13 -13 19 -42 24 -111 4 -52 14 -168 22 -259 25 -276 19 -270
276 -270 238 0 267 14 287 140 6 35 12 63 13 64 2 0 199 -1 438 -4 l435 -6
110 -44 110 -45 490 -3 c544 -3 485 -9 695 66 l85 31 423 3 422 3 5 -35 c12
-72 25 -107 55 -135 l31 -30 189 -3 c208 -4 236 2 264 56 13 26 34 208 52 462
5 81 10 98 29 116 20 18 23 34 29 135 3 63 7 172 8 242 3 128 1 135 -33 149
-4 2 -3 75 1 163 8 177 2 201 -47 207 -20 2 -29 9 -31 26 -2 15 2 22 12 22 9
0 23 12 32 26 16 23 16 38 5 160 -11 130 -35 269 -65 377 -8 29 -17 81 -21
115 -14 139 -70 266 -161 362 l-51 55 -5 142 -5 142 23 5 c21 6 24 12 24 59
l1 52 241 135 c132 74 249 146 259 159 18 22 19 46 19 368 0 361 -3 391 -45
407 -9 3 -64 6 -121 6 -160 0 -149 33 -140 -393 4 -201 11 -359 17 -369 6 -11
19 -22 31 -27 15 -5 -14 -20 -121 -60 -78 -29 -149 -51 -158 -49 -10 2 -29 23
-44 48 l-28 45 -10 345 c-6 190 -13 395 -16 455 -2 61 -7 184 -10 275 -4 91
-13 193 -21 228 -11 51 -14 164 -14 562 0 459 -1 499 -17 519 -20 24 -75 40
-138 41 -51 0 -54 3 -109 77 -53 72 -106 114 -181 142 -93 35 -272 43 -1265
54 -96 1 -373 -1 -615 -5z m-545 -105 c0 -85 44 -508 56 -546 21 -64 99 -148
166 -178 l53 -24 815 0 815 0 57 28 c69 34 131 101 156 171 14 35 25 114 36
256 9 113 20 229 23 259 l6 54 87 -5 c302 -18 437 -269 466 -871 l7 -138 -24
5 c-136 31 -445 53 -829 61 -162 3 -407 8 -545 11 -285 6 -1251 -11 -1487 -27
-86 -5 -212 -18 -280 -28 -68 -10 -126 -16 -129 -12 -12 12 11 336 32 460 37
221 74 312 165 411 84 91 167 128 287 129 57 1 67 -1 67 -16z m2693 -1047 c15
-2 32 -4 37 -5 6 0 10 -13 10 -29 0 -15 11 -44 26 -65 29 -44 58 -120 47 -125
-59 -20 -83 -54 -83 -120 l0 -43 -37 30 c-57 45 -107 62 -202 68 -119 8 -2686
7 -2790 0 -101 -8 -143 -20 -196 -59 l-40 -29 -3 23 c-10 74 -23 100 -59 114
-31 13 -34 18 -28 41 8 32 27 75 55 123 11 19 20 45 20 57 l0 23 273 3 c325 4
2930 -2 2970 -7z m-358 -366 c238 -6 266 -14 348 -89 82 -76 85 -91 118 -550
16 -223 29 -418 29 -434 l0 -27 -67 5 c-91 7 -555 23 -943 32 -642 16 -1487 7
-2160 -21 -168 -8 -307 -12 -309 -10 -5 4 21 408 44 700 15 193 30 237 102
306 73 71 113 82 333 88 258 8 2237 8 2505 0z m-3483 -720 c-1 -157 -5 -295
-7 -307 -6 -28 -41 -31 -49 -5 -13 41 -27 170 -40 347 -12 179 -23 235 -47
235 -6 0 -7 5 -4 10 4 7 36 10 78 8 l72 -3 -3 -285z m4623 280 c3 -5 2 -10 -4
-10 -27 0 -32 -31 -52 -300 -6 -85 -16 -186 -22 -225 -10 -61 -15 -70 -34 -73
-14 -2 -23 2 -24 10 0 7 -2 24 -4 38 -1 14 -6 141 -10 283 -6 198 -4 261 5
272 14 17 135 21 145 5z m-3511 -871 c71 -93 144 -181 163 -195 41 -31 104
-54 157 -55 54 -2 1548 -2 1606 -1 29 1 69 14 110 34 61 31 72 42 198 208
l133 175 87 -3 c171 -5 437 -24 443 -30 10 -12 29 -89 29 -119 0 -17 -9 -42
-20 -56 -16 -20 -438 -328 -587 -429 -21 -13 -35 -12 -165 18 -160 38 -322 66
-513 90 -154 19 -740 28 -905 13 -226 -20 -540 -72 -718 -118 l-74 -19 -86 61
c-262 184 -442 314 -479 344 -54 43 -62 80 -36 160 l20 58 84 7 c46 5 149 11
229 15 80 5 156 9 170 10 21 1 44 -24 154 -168z m-404 -369 c96 -62 207 -133
247 -159 77 -49 83 -59 83 -151 0 -151 61 -627 114 -890 19 -91 32 -167 30
-168 -1 -2 -45 -1 -97 3 l-94 7 -26 105 c-32 129 -115 305 -186 392 -130 162
-286 248 -501 275 l-95 12 2 49 c2 59 23 81 86 90 54 8 179 -24 255 -65 177
-95 344 -304 470 -590 11 -25 11 -25 11 -2 2 43 -59 274 -95 366 -97 243 -195
345 -532 551 -4 3 -5 77 -3 183 l1 93 38 -31 c36 -28 72 -33 72 -10 0 24 22
61 33 57 6 -2 91 -55 187 -117z m3270 84 c16 -48 33 -51 77 -15 l38 31 3 -137
c2 -86 -1 -139 -7 -141 -33 -11 -257 -169 -314 -222 -132 -122 -215 -283 -281
-545 -17 -68 -35 -178 -28 -171 2 3 19 38 36 78 74 170 206 355 324 453 126
105 307 171 399 146 49 -13 61 -31 65 -92 l3 -43 -98 -12 c-159 -21 -278 -70
-392 -162 -138 -111 -264 -337 -305 -549 l-12 -61 -95 -7 c-52 -4 -96 -5 -98
-3 -2 2 9 70 26 151 56 284 102 635 115 885 l7 122 256 165 c140 91 258 165
262 165 4 0 13 -16 19 -36z m-1345 -139 c219 -21 387 -48 568 -90 135 -31 147
-47 147 -192 0 -255 -75 -805 -140 -1035 l-11 -38 -964 0 -964 0 -11 38 c-17
61 -69 325 -85 435 -28 182 -45 359 -52 527 -7 192 -1 217 65 243 83 33 523
107 717 120 153 10 586 6 730 -8z m-2291 -630 c273 -71 470 -256 517 -484 12
-54 11 -63 -4 -78 -15 -15 -36 -13 -304 26 -158 23 -302 44 -319 47 l-30 6
-11 216 c-7 119 -17 230 -23 246 -8 23 -8 31 2 38 16 11 94 3 172 -17z m3959
20 c12 -5 12 -14 2 -53 -7 -26 -16 -130 -19 -232 -4 -102 -9 -193 -12 -202 -6
-20 11 -17 -346 -69 -312 -46 -318 -46 -318 11 0 46 37 151 75 215 96 159 267
270 495 321 63 14 102 16 123 9z m-4152 -142 c4 -48 11 -149 14 -223 6 -121 6
-133 -8 -120 -21 21 -47 154 -47 241 0 75 18 204 27 195 3 -3 9 -45 14 -93z
m4215 -133 c-7 -123 -40 -242 -59 -219 -6 6 22 399 30 429 13 50 35 -107 29
-210z m-3881 -394 c165 -20 377 -45 470 -56 257 -30 253 -30 259 -47 12 -31
68 -35 -639 47 -387 45 -448 57 -453 84 -3 16 1 18 30 13 18 -2 168 -21 333
-41z m3873 27 c-5 -25 -70 -38 -368 -73 -146 -17 -360 -42 -475 -55 -257 -31
-255 -30 -248 -6 6 23 -27 18 483 76 217 25 431 52 475 59 117 19 137 19 133
-1z m-4298 -63 c0 -36 104 -695 116 -740 21 -73 38 -104 86 -156 48 -53 105
-87 178 -108 219 -62 1465 -118 2171 -97 649 19 1104 46 1319 77 202 29 313
110 367 266 8 23 38 203 68 401 30 198 57 362 60 365 3 3 8 2 12 -2 11 -11
-45 -860 -68 -1011 -13 -87 -47 -148 -98 -174 -36 -19 -68 -20 -672 -24 l-634
-3 -106 -37 c-58 -20 -134 -41 -170 -46 -36 -6 -232 -11 -457 -11 -432 0 -463
3 -628 62 l-89 32 -645 6 -645 5 -34 24 c-64 46 -79 101 -101 357 -11 126 -26
342 -35 479 -8 138 -17 271 -19 298 -2 34 1 47 10 47 8 0 14 -5 14 -10z m296
-50 c82 -10 275 -35 429 -55 384 -48 355 -42 355 -72 0 -24 -2 -25 -47 -19
-85 11 -143 10 -154 -1 -17 -17 74 -230 112 -265 18 -17 59 -37 104 -50 62
-18 76 -26 86 -50 6 -15 19 -30 28 -32 60 -18 743 -57 966 -56 184 2 590 20
775 35 96 8 180 15 187 15 8 0 23 15 33 33 17 29 31 37 93 55 41 12 85 31 99
42 16 12 44 62 72 129 47 111 56 150 34 152 -23 2 -82 -1 -142 -7 -57 -6 -58
-6 -51 17 4 13 9 25 10 27 4 5 929 122 933 118 5 -6 -16 -254 -39 -443 -23
-195 -44 -259 -105 -319 -69 -67 -193 -99 -486 -129 -200 -20 -232 -20 -224 1
18 48 112 170 191 249 126 127 265 214 427 270 96 32 65 32 -48 -1 -179 -51
-364 -162 -498 -299 -57 -57 -143 -163 -165 -203 -7 -13 -15 -14 -52 -3 -33 9
-292 11 -1059 8 -558 -2 -1026 -6 -1040 -10 -22 -7 -30 0 -79 68 -64 89 -201
224 -286 282 -82 55 -210 118 -301 148 -114 37 -122 30 -16 -14 218 -91 391
-236 520 -434 24 -38 41 -71 38 -74 -18 -18 -481 39 -593 72 -113 34 -184 123
-208 262 -23 136 -64 573 -53 573 3 0 73 -9 154 -20z m931 -96 c17 -5 23 -15
25 -43 l3 -36 155 -6 c200 -8 1327 -8 1535 0 l160 6 3 35 c4 41 15 50 60 50
38 0 39 -3 16 -121 -33 -176 -62 -241 -119 -265 -64 -26 -255 -36 -810 -39
-670 -4 -917 8 -977 48 -46 32 -63 68 -91 197 -41 191 -41 180 -9 180 15 0 37
-3 49 -6z m-116 -166 c42 -156 42 -155 -17 -119 -32 20 -64 88 -64 138 0 20 5
23 35 23 32 0 35 -3 46 -42z m2219 21 c0 -28 -21 -100 -34 -117 -13 -17 -66
-45 -73 -38 -5 5 2 40 28 139 9 34 13 37 44 37 29 0 35 -4 35 -21z"/>
<path d="M2729 4938 c-7 -13 -13 -50 -13 -83 0 -67 17 -108 42 -103 25 5 42
47 42 103 0 84 -43 135 -71 83z"/>
<path d="M2444 4915 c-7 -19 -14 -50 -14 -70 0 -45 25 -105 43 -105 24 0 38
26 44 82 6 61 -16 128 -42 128 -9 0 -23 -16 -31 -35z"/>
<path d="M3029 4934 c-18 -22 -23 -133 -7 -164 18 -33 44 -37 58 -9 19 34 17
132 -3 163 -20 30 -29 32 -48 10z"/>
<path d="M1366 4898 c-32 -45 -15 -168 23 -168 36 0 55 107 28 159 -17 33 -32
36 -51 9z"/>
<path d="M4116 4898 c-18 -25 -21 -103 -6 -142 15 -39 46 -34 60 10 19 57 0
154 -31 154 -4 0 -15 -10 -23 -22z"/>
<path d="M1800 4545 c-8 -2 -118 -6 -245 -8 -249 -4 -265 -7 -328 -66 -58 -53
-68 -88 -83 -300 -31 -423 -40 -576 -38 -580 2 -2 133 2 291 8 158 6 477 16
708 21 257 7 461 16 525 25 168 24 383 44 550 51 147 7 157 8 195 34 217 148
470 141 671 -17 40 -32 64 -42 134 -56 47 -10 108 -28 136 -42 28 -14 65 -25
82 -25 30 0 32 2 32 39 0 39 -34 547 -45 671 -13 144 -84 219 -226 235 -58 7
-2334 16 -2359 10z m306 -70 c-13 -34 -349 -800 -353 -805 -2 -2 -34 -6 -70
-8 -61 -4 -66 -3 -59 14 7 17 264 720 288 787 10 27 10 27 105 27 81 0 94 -2
89 -15z m-336 -2 c0 -5 -73 -189 -162 -410 l-163 -403 -44 0 c-37 0 -42 2 -36
18 4 9 68 184 142 387 75 204 139 380 144 393 7 19 16 22 64 22 30 0 55 -3 55
-7z"/>
<path d="M3603 3770 c-47 -10 -143 -49 -143 -59 0 -4 73 -8 163 -9 89 -1 204
-5 255 -8 50 -4 92 -3 92 0 0 4 -28 20 -63 36 -98 47 -201 60 -304 40z"/>
<path d="M2462 2829 c-19 -7 -23 -15 -20 -41 l3 -33 320 0 320 0 3 33 c3 27
-1 34 -23 42 -33 13 -571 12 -603 -1z"/>
<path d="M1863 2695 c-132 -18 -141 -21 -147 -52 -7 -28 0 -109 10 -124 3 -5
64 -9 137 -9 l131 0 34 -32 33 -33 332 -6 c309 -6 819 -3 1000 5 72 4 82 7
111 35 l32 31 136 0 136 0 6 31 c10 50 7 104 -6 121 -19 24 -253 53 -282 35
-29 -17 -1490 -16 -1523 1 -25 14 -18 14 -140 -3z"/>
<path d="M1736 2298 c4 -45 12 -86 18 -90 6 -4 69 -8 140 -8 127 0 129 0 161
-29 l33 -28 335 -8 c184 -4 489 -4 677 0 l343 8 34 30 35 31 127 -2 c69 -1
131 1 137 5 7 5 15 46 19 91 l7 84 -303 -8 c-389 -10 -1079 -10 -1467 0 l-304
8 8 -84z"/>
<path d="M1764 2052 c2 -9 8 -45 11 -79 l7 -63 143 0 144 0 30 -32 31 -33 635
0 635 0 31 33 30 32 144 0 143 0 7 53 c3 28 8 65 11 80 l6 28 -144 -8 c-175
-10 -1588 -10 -1751 -1 -109 7 -118 6 -113 -10z"/>
<path d="M1810 1771 c1 -3 6 -33 13 -66 17 -79 29 -85 181 -85 117 0 121 -1
148 -27 l28 -27 585 0 585 0 28 27 c27 26 31 27 148 27 148 0 165 7 181 75 6
28 12 57 12 66 1 15 -84 16 -954 16 -525 0 -955 -3 -955 -6z"/>
<path d="M761 2197 c-17 -17 -13 -93 5 -111 8 -9 25 -16 37 -16 37 0 227 -48
340 -87 59 -20 111 -33 115 -29 16 17 -147 138 -240 179 -117 52 -239 82 -257
64z m135 -68 c70 -21 199 -78 192 -84 -2 -2 -42 9 -88 24 -47 16 -111 34 -142
41 -36 8 -58 18 -58 27 0 18 16 17 96 -8z"/>
<path d="M777 1997 c-15 -10 -17 -23 -11 -86 5 -47 13 -80 23 -90 20 -20 258
-58 273 -43 12 12 -27 150 -50 174 -10 10 -52 24 -102 33 -47 9 -92 18 -101
21 -8 2 -23 -2 -32 -9z m167 -70 c11 -8 19 -26 19 -42 0 -57 -74 -74 -102 -24
-29 53 34 102 83 66z"/>
<path d="M1080 1932 c0 -28 49 -165 61 -173 22 -13 190 -32 200 -22 14 14 -23
110 -58 151 -23 26 -41 35 -101 47 -93 19 -102 19 -102 -3z m151 -52 c28 -16
26 -68 -3 -79 -50 -20 -89 43 -46 73 27 19 24 19 49 6z"/>
<path d="M4700 2194 c-36 -7 -96 -25 -134 -40 -107 -42 -303 -180 -284 -200 4
-3 62 12 130 34 67 22 174 52 237 66 63 14 119 30 125 36 14 14 14 96 1 108
-6 6 -35 4 -75 -4z m40 -57 c0 -8 -29 -20 -77 -31 -43 -10 -107 -29 -143 -42
-35 -13 -66 -21 -68 -19 -7 6 93 54 170 80 82 28 118 31 118 12z"/>
<path d="M4641 1989 c-57 -11 -102 -26 -113 -36 -25 -26 -64 -161 -51 -174 14
-14 259 23 277 41 17 17 24 161 8 177 -7 7 -16 13 -20 12 -4 -1 -50 -10 -101
-20z m29 -64 c19 -22 15 -67 -6 -82 -28 -20 -66 -12 -83 18 -13 24 -13 29 2
53 20 30 67 36 87 11z"/>
<path d="M4345 1933 c-73 -17 -90 -32 -126 -108 -33 -68 -35 -83 -14 -91 26
-10 184 18 198 35 18 22 60 159 52 171 -8 13 -36 11 -110 -7z m4 -53 c44 -23
31 -80 -19 -80 -59 0 -61 74 -2 89 2 1 11 -3 21 -9z"/>
<path d="M908 1173 c7 -3 16 -2 19 1 4 3 -2 6 -13 5 -11 0 -14 -3 -6 -6z"/>
<path d="M846 1091 c-8 -12 77 -247 98 -269 22 -26 43 -33 198 -76 131 -37
158 -38 158 -5 0 32 -66 152 -102 186 -18 18 -92 59 -168 94 -169 77 -178 80
-184 70z m118 -129 c-17 -16 -17 -16 -33 15 -19 37 -12 45 18 22 26 -19 28
-24 15 -37z m110 -18 c33 -32 8 -104 -36 -104 -24 0 -58 35 -58 60 0 25 34 60
59 60 11 0 27 -7 35 -16z m104 -117 c12 -11 22 -26 22 -34 0 -16 3 -16 -53 3
-46 15 -46 16 -31 40 17 25 25 24 62 -9z"/>
<path d="M4555 1042 c-172 -77 -184 -85 -223 -124 -49 -51 -104 -165 -91 -189
5 -10 15 -19 22 -19 7 0 79 20 162 44 114 34 155 50 171 69 24 28 98 237 92
262 -2 12 -31 2 -133 -43z m50 -62 c-14 -27 -19 -29 -32 -19 -13 12 -12 16 13
36 35 28 40 24 19 -17z m-79 -28 c25 -16 34 -50 23 -76 -32 -69 -126 -23 -99
48 12 32 50 46 76 28z m-104 -116 l18 -24 -47 -16 c-56 -19 -53 -19 -53 -4 0
12 49 68 59 68 3 0 14 -11 23 -24z"/>
<path d="M1859 1263 c-6 -41 26 -135 54 -160 16 -15 42 -22 92 -26 403 -35
1534 -25 1607 14 24 13 55 79 64 138 l7 42 -104 -7 c-141 -10 -1455 -10 -1601
0 -65 4 -119 4 -119 -1z"/>
</g>
</svg>
